<?xml version="1.0" encoding="UTF-8" standalone="no"?>
<!DOCTYPE svg PUBLIC "-//W3C//DTD SVG 1.1//EN" "http://www.w3.org/Graphics/SVG/1.1/DTD/svg11.dtd">
<svg width="100%" height="100%" viewBox="0 0 48 60" version="1.1" xmlns="http://www.w3.org/2000/svg" xmlns:xlink="http://www.w3.org/1999/xlink" xml:space="preserve" xmlns:serif="http://www.serif.com/" style="fill-rule:evenodd;clip-rule:evenodd;stroke-linejoin:round;stroke-miterlimit:2;">
    <g transform="matrix(1,0,0,1,0,6)">
        <path d="M29.55,14.53C27.719,13.593 25.482,13.924 24,15.35C22.515,13.929 20.282,13.599 18.45,14.53C16.68,15.47 15.12,17.93 16.57,21.76C17.92,25.33 22.84,30 24,30C25.16,30 30.08,25.33 31.43,21.76C32.88,17.93 31.32,15.47 29.55,14.53ZM29.55,21.06C28.55,23.82 25.19,26.92 23.99,27.83C22.79,26.92 19.47,23.83 18.43,21.06C17.39,18.29 18.27,16.89 19.38,16.3C19.756,16.103 20.175,16 20.6,16C21.639,16.023 22.603,16.559 23.17,17.43C23.357,17.698 23.663,17.858 23.99,17.858C24.317,17.858 24.623,17.698 24.81,17.43C25.607,16.162 27.238,15.676 28.6,16.3C29.72,16.89 30.55,18.44 29.56,21.06L29.55,21.06Z" style="fill-rule:nonzero;"/>
        <path d="M24,4C15.223,4 8,11.223 8,20C8,31.44 22.25,44 24,44C25.75,44 40,31.44 40,20C40,11.223 32.777,4 24,4ZM24,41.9C21.76,40.46 10,29.83 10,20C10,12.32 16.32,6 24,6C31.68,6 38,12.32 38,20C38,29.83 26.24,40.46 24,41.9Z" style="fill-rule:nonzero;"/>
    </g>
</svg>
