<?xml version="1.0" encoding="UTF-8" standalone="no"?>
<!DOCTYPE svg PUBLIC "-//W3C//DTD SVG 1.1//EN" "http://www.w3.org/Graphics/SVG/1.1/DTD/svg11.dtd">
<svg width="100%" height="100%" viewBox="0 0 32 40" version="1.1" xmlns="http://www.w3.org/2000/svg" xmlns:xlink="http://www.w3.org/1999/xlink" xml:space="preserve" xmlns:serif="http://www.serif.com/" style="fill-rule:evenodd;clip-rule:evenodd;stroke-linejoin:round;stroke-miterlimit:2;">
    <g transform="matrix(1,0,0,1,0.001,4.0015)">
        <path d="M25.855,11.552C25.556,11.375 25.197,11.326 24.849,11.375C25.203,10.558 25.414,9.661 25.414,8.713C25.416,5.004 22.41,2 18.701,2C17.738,2 16.828,2.217 16,2.584C15.172,2.217 14.262,2 13.297,2C9.59,2 6.584,5.004 6.584,8.713C6.584,9.661 6.793,10.557 7.148,11.373C6.802,11.326 6.447,11.374 6.15,11.548C5.814,11.744 5.273,12.254 5.435,13.446C5.599,14.656 6.417,15.205 7.013,15.604C7.314,15.804 7.574,15.977 7.702,16.181L7.901,16.494C8.878,19.085 10.924,20.973 13.577,21.687L13.577,23.045C8.983,23.545 5.243,25.63 5.243,29.997L26.755,29.997C26.755,25.63 23.014,23.545 18.421,23.045L18.421,21.687C21.073,20.97 23.12,19.083 24.098,16.495L24.296,16.181C24.427,15.977 24.686,15.804 24.984,15.604C25.581,15.205 26.398,14.656 26.562,13.447C26.727,12.258 26.189,11.749 25.855,11.552ZM6.426,13.312C6.391,13.047 6.373,12.577 6.655,12.412C6.852,12.296 7.137,12.347 7.29,12.462C7.284,12.61 7.27,12.757 7.27,12.909C7.27,13.516 7.325,14.102 7.418,14.666C6.928,14.334 6.52,14.004 6.426,13.312ZM17.422,23.154C17.422,23.937 16.783,24.576 16,24.576C15.217,24.576 14.578,23.937 14.578,23.154L14.578,21.894C15.039,21.963 15.512,22.01 16,22.01C16.488,22.01 16.961,21.963 17.422,21.894L17.422,23.154ZM16,21.012C11.52,21.012 8.27,17.604 8.27,12.908C8.27,11.438 8.588,10.095 9.163,8.943C9.794,9.267 10.323,9.447 11.226,9.447C12.753,9.447 13.986,8.309 14.869,7.213C15.986,8.334 17.605,9.447 19.267,9.447C20.41,9.447 21.72,9.155 22.676,8.654C23.349,9.869 23.732,11.311 23.732,12.908C23.73,17.604 20.479,21.012 16,21.012ZM25.574,13.312C25.48,14.004 25.072,14.334 24.582,14.667C24.676,14.102 24.73,13.516 24.73,12.908C24.73,12.756 24.715,12.609 24.709,12.46C24.862,12.346 25.147,12.297 25.347,12.412C25.627,12.578 25.609,13.047 25.574,13.312Z" style="fill-rule:nonzero;"/>
        <path d="M22.074,13.597L22.074,15.917C22.074,19.107 19.342,21.717 16,21.717C12.658,21.717 9.926,19.108 9.926,15.917L9.926,13.597L22.074,13.597Z" style="fill-rule:nonzero;"/>
        <g transform="matrix(-0.6182,-0.786,0.786,-0.6182,27.0805,39.053)">
            <rect x="22.476" y="10.848" width="1.1" height="4.202"/>
        </g>
        <g transform="matrix(-0.7856,-0.6188,0.6188,-0.7856,8.0117,28.6758)">
            <rect x="6.874" y="12.399" width="4.201" height="1.1"/>
        </g>
        <path d="M12.688,12.497C11.795,12.497 11.175,11.973 11.107,11.913C10.9,11.73 10.88,11.414 11.063,11.207C11.245,11 11.559,10.98 11.766,11.16C11.77,11.163 12.166,11.496 12.688,11.496C13.205,11.496 13.604,11.165 13.607,11.162C13.814,10.98 14.13,10.999 14.313,11.206C14.496,11.413 14.476,11.729 14.269,11.912C14.201,11.972 13.581,12.497 12.688,12.497Z" style="fill-rule:nonzero;"/>
        <path d="M19.313,12.497C18.419,12.497 17.799,11.973 17.731,11.913C17.524,11.73 17.504,11.414 17.688,11.207C17.871,10.999 18.188,10.981 18.393,11.163C18.395,11.164 18.79,11.497 19.313,11.497C19.83,11.497 20.229,11.166 20.231,11.163C20.438,10.981 20.754,11 20.938,11.207C21.121,11.414 21.1,11.73 20.893,11.913C20.825,11.972 20.205,12.497 19.313,12.497Z" style="fill-rule:nonzero;"/>
    </g>
</svg>
