<?xml version="1.0" encoding="UTF-8" standalone="no"?>
<!DOCTYPE svg PUBLIC "-//W3C//DTD SVG 1.1//EN" "http://www.w3.org/Graphics/SVG/1.1/DTD/svg11.dtd">
<svg width="100%" height="100%" viewBox="0 0 32 40" version="1.1" xmlns="http://www.w3.org/2000/svg" xmlns:xlink="http://www.w3.org/1999/xlink" xml:space="preserve" xmlns:serif="http://www.serif.com/" style="fill-rule:evenodd;clip-rule:evenodd;stroke-linejoin:round;stroke-miterlimit:2;">
    <g transform="matrix(1,0,0,1,0,3.99586)">
        <path d="M21.563,20.197C25.719,21.796 28.058,18.152 28.058,18.152C28.058,18.152 26.626,16.706 26.201,15.285C24.766,10.497 25.846,-0.754 16,2.634C6.155,-0.754 7.234,10.497 5.799,15.285C5.373,16.706 3.942,18.152 3.942,18.152C3.942,18.152 6.28,21.797 10.437,20.197C11.345,20.982 12.423,21.57 13.638,21.898L13.638,23.222C9.161,23.711 5.515,25.743 5.515,30L26.486,30C26.486,25.743 22.838,23.711 18.361,23.225L18.361,21.9C19.577,21.572 20.656,20.983 21.563,20.197ZM17.387,23.326C17.387,24.092 16.764,24.713 16,24.713C15.236,24.713 14.614,24.092 14.614,23.326L14.614,22.101C15.063,22.166 15.524,22.212 16,22.212C16.476,22.212 16.938,22.166 17.387,22.101L17.387,23.326ZM16,21.239C11.632,21.239 8.464,17.916 8.464,13.337C8.464,11.903 8.775,10.595 9.334,9.473C14.051,11.477 18.209,7.038 18.209,7.038C18.209,7.038 19.412,9.528 22.508,9.191C23.163,10.374 23.536,11.779 23.536,13.337C23.536,17.916 20.366,21.239 16,21.239Z" style="fill-rule:nonzero;"/>
        <path d="M21.922,14.007L21.922,16.273C21.922,19.383 19.258,21.926 16,21.926C12.742,21.926 10.078,19.383 10.078,16.273L10.078,14.007L21.922,14.007Z" style="fill-rule:nonzero;"/>
        <g transform="matrix(-0.6193,-0.7852,0.7852,-0.6193,26.4947,39.6055)">
            <rect x="22.299" y="11.331" width="1.101" height="4.097"/>
        </g>
        <g transform="matrix(-0.7855,-0.6189,0.6189,-0.7855,8.0589,29.5494)">
            <rect x="7.103" y="12.827" width="4.095" height="1.101"/>
        </g>
        <path d="M12.771,12.948C11.898,12.948 11.289,12.434 11.222,12.376C11.014,12.193 10.994,11.877 11.177,11.67C11.359,11.463 11.671,11.442 11.879,11.622C11.883,11.625 12.268,11.948 12.771,11.948C13.271,11.948 13.655,11.629 13.659,11.626C13.864,11.443 14.182,11.462 14.365,11.669C14.548,11.876 14.528,12.192 14.321,12.375C14.254,12.434 13.646,12.948 12.771,12.948Z" style="fill-rule:nonzero;"/>
        <path d="M19.229,12.948C18.354,12.948 17.747,12.434 17.68,12.375C17.473,12.192 17.452,11.876 17.635,11.669C17.819,11.462 18.137,11.444 18.341,11.626C18.342,11.626 18.725,11.948 19.229,11.948C19.733,11.948 20.118,11.626 20.122,11.622C20.329,11.444 20.645,11.466 20.825,11.674C21.005,11.882 20.985,12.194 20.778,12.375C20.712,12.434 20.104,12.948 19.229,12.948Z" style="fill-rule:nonzero;"/>
    </g>
</svg>
