<?xml version="1.0" encoding="UTF-8" standalone="no"?>
<!DOCTYPE svg PUBLIC "-//W3C//DTD SVG 1.1//EN" "http://www.w3.org/Graphics/SVG/1.1/DTD/svg11.dtd">
<svg width="100%" height="100%" viewBox="0 0 64 80" version="1.1" xmlns="http://www.w3.org/2000/svg" xmlns:xlink="http://www.w3.org/1999/xlink" xml:space="preserve" xmlns:serif="http://www.serif.com/" style="fill-rule:evenodd;clip-rule:evenodd;stroke-linejoin:round;stroke-miterlimit:2;">
    <g transform="matrix(1,0,0,1,0,8.0174)">
        <path d="M24.29,23.7C24.482,23.882 24.735,23.986 25,23.99C25.131,23.988 25.26,23.961 25.38,23.909C25.755,23.755 26,23.389 26,22.984C26,22.435 25.549,21.984 25,21.984C24.734,21.984 24.478,22.091 24.29,22.28C24.202,22.377 24.131,22.488 24.08,22.609C23.973,22.851 23.973,23.127 24.08,23.369C24.129,23.492 24.2,23.604 24.29,23.7Z" style="fill-rule:nonzero;"/>
        <path d="M40.71,27.7C40.898,27.512 41.004,27.256 41.004,26.99C41.004,26.439 40.551,25.986 40,25.986C39.734,25.986 39.478,26.092 39.29,26.28C39.202,26.377 39.131,26.488 39.08,26.609C38.973,26.851 38.973,27.127 39.08,27.369C39.223,27.75 39.593,28 40,27.99C40.131,27.988 40.26,27.961 40.38,27.909C40.502,27.861 40.614,27.79 40.71,27.7Z" style="fill-rule:nonzero;"/>
        <path d="M45.29,26.278C45.202,26.375 45.131,26.486 45.08,26.607C44.973,26.849 44.973,27.125 45.08,27.367C45.223,27.748 45.593,27.998 46,27.988C46.131,27.986 46.26,27.959 46.38,27.907C46.755,27.753 47,27.387 47,26.982C47,26.433 46.549,25.982 46,25.982C45.734,25.982 45.478,26.089 45.29,26.278Z" style="fill-rule:nonzero;"/>
        <path d="M18.29,23.7C18.482,23.882 18.735,23.986 19,23.99C19.131,23.988 19.26,23.961 19.38,23.909C19.755,23.755 20,23.389 20,22.984C20,22.435 19.549,21.984 19,21.984C18.734,21.984 18.478,22.091 18.29,22.28C18.202,22.377 18.131,22.488 18.08,22.609C17.973,22.851 17.973,23.127 18.08,23.369C18.129,23.492 18.2,23.604 18.29,23.7Z" style="fill-rule:nonzero;"/>
        <path d="M50,45C48.521,44.996 47.093,45.548 46,46.545C44.907,45.548 43.479,44.996 42,45C38.71,45.003 36.003,47.71 36,51L36,62L38,62L38,51C38,48.806 39.806,47 42,47C43.264,47 44.454,47.604 45.2,48.625C45.397,48.864 45.691,49.002 46,49.002C46.309,49.002 46.603,48.864 46.8,48.625C47.546,47.604 48.736,47 50,47C52.194,47 54,48.806 54,51L54,62L56,62L56,51C55.997,47.71 53.29,45.003 50,45Z" style="fill-rule:nonzero;"/>
        <rect x="10" y="54" width="2" height="8"/>
        <path d="M61.989,48.852L57.319,17.752C56.812,14.326 54.773,11.311 51.783,9.564C51.927,9.043 52,8.505 52,7.965C52,4.674 49.291,1.965 46,1.965C42.708,1.965 40,4.674 40,7.965C40,8.513 40.075,9.058 40.223,9.586C37.241,11.332 35.203,14.335 34.681,17.75L31.725,37.436C30.844,37.152 29.925,37.005 29,37L27,37L27,36C27,35.451 26.549,35 26,35C25.918,35 25.836,35.01 25.757,35.03L24,35.469L24,34.475C27.583,33.206 29.994,29.801 30,26L30,12C30,9.806 28.194,8 26,8L19,8C13.516,8.006 9.006,12.516 9,18L9,21.78C8.364,22.347 8,23.159 8,24.011C8,25.651 9.349,27 10.989,27C10.993,27 10.996,27 11,27L12.059,27C12.355,29.633 13.798,32.005 16,33.478L16,35.469L14.243,35.03C14.164,35.01 14.082,35 14,35C13.451,35 13,35.451 13,36L13,37L11,37C6.065,37.005 2.005,41.065 2,46L2,62L4,62L4,46C4.004,42.162 7.162,39.004 11,39L11.875,39L7.418,42.187C6.982,42.499 6.87,43.108 7.167,43.554L8.498,45.554C8.683,45.832 8.996,46 9.33,46L10.613,46L10.051,47.684C9.952,47.982 9.999,48.311 10.178,48.569L19.178,61.569C19.21,61.611 19.245,61.651 19.283,61.688C19.298,61.703 19.31,61.72 19.326,61.735L19.362,61.767C19.378,61.78 19.396,61.789 19.412,61.801C19.465,61.84 19.522,61.873 19.581,61.901C19.588,61.906 19.595,61.911 19.602,61.915C19.611,61.915 19.621,61.915 19.63,61.921L19.701,61.946C19.797,61.979 19.898,61.997 20,62C20.102,61.998 20.203,61.981 20.3,61.948L20.371,61.923C20.38,61.923 20.39,61.923 20.399,61.917C20.406,61.913 20.413,61.908 20.42,61.903C20.479,61.875 20.536,61.842 20.589,61.803C20.605,61.791 20.623,61.782 20.639,61.769L20.675,61.737C20.691,61.722 20.703,61.705 20.718,61.69C20.756,61.653 20.791,61.613 20.823,61.571L29.823,48.571C30.002,48.313 30.049,47.984 29.95,47.686L29.387,46L30.439,46L30.011,48.852C29.996,48.973 30.005,49.097 30.04,49.214C30.019,49.474 30,49.735 30,50L30,62L32,62L32,50C32.005,45.613 35.613,42.005 40,42L43,42C43.549,42 44,41.549 44,41L44,38L45,38C46.039,37.999 47.064,37.765 48,37.315L48,41C48,41.549 48.451,42 49,42L52,42C56.387,42.005 59.995,45.613 60,50L60,62L62,62L62,50C62,49.749 61.981,49.5 61.962,49.255C61.998,49.124 62.008,48.987 61.989,48.852ZM42,8C42,5.806 43.806,4 46,4C48.194,4 50,5.806 50,8C49.996,8.235 49.971,8.469 49.926,8.7C48.668,8.239 47.339,8.002 46,8C44.66,8.001 43.332,8.241 42.076,8.708C42.029,8.475 42.004,8.238 42,8ZM54,27C54,27.549 53.549,28 53,28L52,28L52,26L53,26C53.549,26 54,26.451 54,27ZM53,24L51.121,24C49.291,23.544 47.997,21.886 48,20C48,19.451 47.549,19 47,19C43.678,18.991 40.469,20.217 38,22.439L38,21.5C38,17.386 41.386,14 45.5,14C49.614,14 53,17.386 53,21.5L53,24ZM16.953,42.293L20,41.531L23.047,42.293L20,56.3L16.953,42.293ZM11,18C11.005,13.613 14.613,10.005 19,10L26,10C27.097,10 28,10.903 28,12L28,16.39L27.886,16.199C27.064,14.839 25.589,14.004 24,14L18,14C15.806,14 14,15.806 14,18L14,18.7L12.465,21L11,21L11,18ZM10,24C10,23.451 10.451,23 11,23L12,23L12,25L11,25C10.451,25 10,24.549 10,24ZM14,26L14,22.3L15.832,19.552C15.941,19.388 15.999,19.196 16,19L16,18C16,16.903 16.903,16 18,16L24,16C24.887,16.003 25.711,16.469 26.17,17.229L28,20.277L28,26C28,29.84 24.84,33 21,33C17.16,33 14,29.84 14,26ZM18,34.475C19.279,34.939 20.649,35.099 22,34.941L22,35.969L20,36.469L18,35.969L18,34.475ZM15,37.281L19.757,38.47C19.916,38.511 20.084,38.511 20.243,38.47L25,37.281L25,40.719L20.243,39.53C20.083,39.49 19.917,39.49 19.757,39.53L15,40.719L15,37.281ZM12.811,44.415C12.623,44.155 12.321,44 12,44L9.866,44L9.366,43.251L13,40.654L13,42C13,42.549 13.451,43 14,43C14.082,43 14.164,42.99 14.243,42.97L15.012,42.778L17.95,56.278L12.107,47.838L12.949,45.312C13.049,45.008 12.998,44.675 12.811,44.415ZM30.132,44.003L28,44C27.451,44 27,44.451 27,45C27,45.107 27.017,45.214 27.051,45.316L27.893,47.842L22.05,56.282L24.988,42.782L25.757,42.974C25.836,42.994 25.918,43.004 26,43.004C26.549,43.004 27,42.553 27,42.004C27,42.003 27,42.001 27,42L27,40.654L30.632,43.254L30.132,44.003ZM28.125,39L29,39C29.828,39 30.649,39.148 31.425,39.437L31.164,41.173L28.125,39ZM40,40C37.373,39.999 34.849,41.037 32.983,42.886C32.976,42.836 32.966,42.786 32.952,42.737L36,22.437L36,31C36.004,34.461 38.574,37.426 42,37.92L42,40L40,40ZM43,36C40.258,35.997 38.003,33.742 38,31L38,25.351L38.034,25.309C40.007,22.829 42.927,21.279 46.087,21.035C46.456,23.185 47.952,24.979 50,25.73L50,31C49.997,33.742 47.742,35.997 45,36L43,36ZM52,40L50,40L50,35.889C51.282,34.585 52,32.828 52,31L52,30L53,30C53.004,30 53.007,30 53.011,30C54.651,30 56,28.651 56,27.011C56,26.159 55.636,25.347 55,24.78L55,21.497C55,16.288 50.714,12.002 45.505,12.002C41.601,12.002 38.078,14.41 36.659,18.047C37.345,13.44 41.342,9.994 46,9.994C50.658,9.994 54.655,13.44 55.341,18.047L59.08,42.947C57.208,41.06 54.658,39.999 52,40Z" style="fill-rule:nonzero;"/>
        <path d="M44.551,31.105C43.575,31.589 42.427,31.589 41.451,31.105C41.312,31.036 41.159,31 41.004,31C40.455,31 40.004,31.451 40.004,32C40.004,32.378 40.218,32.726 40.557,32.895C42.097,33.661 43.911,33.661 45.451,32.895C45.789,32.725 46.003,32.378 46.003,32C46.003,31.45 45.551,30.998 45.001,30.998C44.845,30.998 44.691,31.035 44.551,31.105Z" style="fill-rule:nonzero;"/>
        <path d="M19.106,28.083C19.037,28.222 19,28.375 19,28.53C19,28.909 19.215,29.256 19.554,29.425C21.093,30.191 22.907,30.191 24.446,29.425C24.781,29.255 24.992,28.909 24.992,28.534C24.992,27.985 24.541,27.534 23.992,27.534C23.839,27.534 23.689,27.569 23.552,27.636C22.575,28.122 21.424,28.122 20.447,27.636C19.957,27.391 19.351,27.593 19.106,28.083Z" style="fill-rule:nonzero;"/>
    </g>
</svg>
